<svg xmlns="http://www.w3.org/2000/svg" viewBox="0 0 512 512"><defs><linearGradient id="g" x1="0" y1="0" x2="1" y2="1"><stop offset="0" stop-color="#ffb3d4"/><stop offset="1" stop-color="#ff7aa8"/></linearGradient></defs><rect width="512" height="512" rx="120" fill="url(#g)"/><path d="M256 400c-120-90-150-150-150-205a76 76 0 0 1 150-20 76 76 0 0 1 150 20c0 55-30 115-150 205z" fill="#fff" stroke="#fff" stroke-width="30" stroke-linejoin="round"/><path d="M256 370c-100-76-124-124-124-170a50 50 0 0 1 124-14 50 50 0 0 1 124 14c0 46-24 94-124 170z" fill="#ffd1e3"/><circle cx="214" cy="232" r="13" fill="#2b2540"/><circle cx="298" cy="232" r="13" fill="#2b2540"/><path d="M236 266q20 20 40 0" stroke="#2b2540" stroke-width="10" fill="none" stroke-linecap="round"/></svg>
